# xmcd
#
# Track frame offsets: 
#        150
#        13322
#        26721
#        41389
#        56166
#        70092
#        83499
#        97515
#        111042
#        123923
#        138357
#        153337
#        167744
#        182112
#        195706
#        208911
#        222655
#        237163
#        251293
#        265222
#        278671
#        292089
#        306105
#        319628
#
# Disc length: 4450 seconds
#
# Revision: 4
# Processed by: cddbd v1.5.2PL0 Copyright (c) Steve Scherf et al.
# Submitted via: ExactAudioCopyFreeDBPlugin 1.0
#
DISCID=55116018
DTITLE=Various Artist - Georgia Stringbands, Vol. 1
DYEAR=1927
DGENRE=Country
TTITLE0=Cofer Brothers - Where The Morning Glories Grow
TTITLE1=Cofer Brothers - The Great Shio Went Down
TTITLE2=Cofer Brothers - The All Go Hungry Hash House
TTITLE3=Cofer Brothers - The Georgia Hobo
TTITLE4=Georgia Crackers - Riley The Furniture Man
TTITLE5=Georgia Crackers - The Coon From Tennessee
TTITLE6=Georgia Crackers - The Georgia Black Bottom
TTITLE7=Georgia Crackers - Diamond Joe
TTITLE8=Georgia Crackers - I've Got A Gal In Baltimore
TTITLE9=Georgia Crackers - Stockade Blues
TTITLE10=The Spooney Five - Chinese Rag
TTITLE11=The Spooney Five - My Little Girl
TTITLE12=Watkins Band - Bob Murphy
TTITLE13=Watkins Band - Gideon
TTITLE14=Watkins Band - Little Girl, You Know I Love You
TTITLE15=Watkins Band - Tom's Rag
TTITLE16=Theo and Gus Clark - Wimbush Rag
TTITLE17=Theo and Gus Clark - Barrow County Stomp
TTITLE18=Cofer Brothers - Because He Loved Her So
TTITLE19=Cofer Brothers - Reno, The Rent Man
TTITLE20=Cofer Brothers - Rock That Cradle Lucy
TTITLE21=Cofer Brothers - How Long
TTITLE22=Carroll County Revelers - Rome Georgia Bound
TTITLE23=Carroll County Revelers - Georgia Wobble Blues
EXTD=
EXTT0=
EXTT1=
EXTT2=
EXTT3=
EXTT4=
EXTT5=
EXTT6=
EXTT7=
EXTT8=
EXTT9=
EXTT10=
EXTT11=
EXTT12=
EXTT13=
EXTT14=
EXTT15=
EXTT16=
EXTT17=
EXTT18=
EXTT19=
EXTT20=
EXTT21=
EXTT22=
EXTT23=
PLAYORDER=
